<svg xmlns="http://www.w3.org/2000/svg" aria-hidden="true" data-bbox="52.002 28 95.997 144" data-type="color" viewBox="52.002 28 95.997 144"><g fill="#e0aa5a"><path d="m102.531 51.76.185 2.207-6.616.555-.185-2.207 6.616-.555z" data-color="1"/><path d="M134.744 103.448c-1.124-.369-2.184-.718-2.915-1.124-.858-.479-1.328-1.068-1.437-1.8-.276-1.853 1.66-4.34 2.429-5.142l.13-.136c.935.929 2.413 2.02 4.266 2.104.078.003.155.005.232.005 4.759 0 6.442-5.267 8.231-8.77l1.609-3.148c.061-.119.581-1.387.71-1.389l-10.208.194c-2.512.048-5.222.768-6.51 3.196-.625 1.177-.733 2.553-.353 4.1l-.683.539c-5.299 4.178-7.662 7.94-7.022 11.18.712 3.611 4.722 5.008 5.935 5.35.367.103.833.196 1.355.297 1.567.303 3.715.719 4.493 1.946.367.579.426 1.341.179 2.332-.611 2.46-2.906 3.274-5.19 3.405-2.151.124-10.911-.033-11.027-.175-2.085-2.538-5.237-3.48-8.015-4.305l-.299-.089c-1.9-.566-3.627-4.683-3.773-8.989-.085-2.519.298-5.259 1.84-7.327 1.172-1.572 3.041-2.129 4.309-3.593 1.754-2.026 2.719-4.639 2.516-7.301 7.551 2.361 13.205 1.909 17.675-1.3 3.468-2.489 5.539-6.493 5.154-9.963-.258-2.33-1.588-4.243-3.778-5.485 1.347-2.904 1.882-6.308 1.251-9.261-.853-3.996-3.65-6.801-7.874-7.973a8.268 8.268 0 0 0-1.197-2.702c-3.198-4.651-10.435-5.167-11.649-5.221l1.579-12.012-7.661 4.919-4.703-7.81-3.657 7.759-7.78-4.86 1.969 13.106h18.232c.088 4.101-.513 7.991-1.761 11.275-1.185 3.116-2.853 5.308-4.957 6.516-1.798 1.031-3.81 1.575-5.94 2.15-2.167.585-4.408 1.192-6.461 2.359A26.598 26.598 0 0 0 88.997 70l-4.894.043 1.568-3.297c3.959.082 6.711-.854 8.169-2.783 1.704-2.255.573-6.107.573-6.107H82.125l-.992-3.325h12.406l1.47-5.356h13.864V46.96H93.33l-1.47 5.356H78.168l2.316 7.757H92.71c.066.685.017 1.71-.638 2.565-1.071 1.4-3.502 2.049-7.037 1.869l-.74-.037-3.332 7.174c-1.619-2.517-3.937-4.741-6.936-6.603-4.799-2.978-9.577-3.98-9.779-4.022l-.39-.08-6.814 3.674c-.568.307-.87.94-.752 1.576.118.64.631 1.124 1.277 1.207 12.93 1.634 14.375 10.834 14.529 13.296-7.107-.214-14.024.924-17.798 4.218-.073.064-.116.186-.156.271-.094.196-.179.397-.262.599-.253.615-.484 1.24-.704 1.868-.259.74-.503 1.486-.719 2.239-.291 1.014-.941 2.53.159 3.285.277.19.622.275.955.246.686-.059 1.375-.376 2.051-.524a48.677 48.677 0 0 1 8.681-1.111 49.163 49.163 0 0 1 11.063.848c-.002.015-.008.024-.01.04-.282 2.764 2.96 14.624 15.944 23.18-10.838 5.329-14.34 10.729-15.328 14.38-.61 2.25-.397 4.43.568 5.83 3.167 4.597 4.139 10.414 2.973 17.783-.437 2.757-1.341 6.892-1.928 8.004l-6.478.087c-5.592 0-8.37 7.89-8.486 8.226l-.506 1.471H82.69c.722 0 1.444.002 2.166.013.644.01 1.166-.122 1.616-.604 1.676-1.795 3.097-3.898 4.387-5.984a52.726 52.726 0 0 0 3.218-6.066 57.02 57.02 0 0 0 2.19-5.648 57.057 57.057 0 0 0 1.354-4.821c.278-1.186.518-2.381.711-3.585.095-.596.238-1.211.227-1.817-.012-.642-.336-1.047-.585-1.604-.902-2.023-1.016-3.777-.335-5.226 1.065-2.269 3.824-3.42 5.376-3.907-.315 3.271-1.676 5.578-1.694 5.609l-.117.263c-.053.179-1.264 4.405 1.572 7.895 2.653 3.264 7.825 4.656 15.379 4.142.159 2.394.4 8.196-.686 11.737l-7.352.001c-.213.009-5.245.314-7.452 8.578l-.377 1.392h21.116c.834 0 1.618-.445 2.046-1.16 2.021-3.383 12.048-20.898 10.931-33.487-.102-1.154-1.062-2.076-2.232-2.145-1.972-.119-8.635-.772-11.565-4.195-1.113-1.302-1.573-2.845-1.403-4.717.056-.616.082-1.195.092-1.755 0 0 6.863.195 7.359.195 3.139 0 13.388-.637 14.955-8.86 1.71-8.968-4.641-11.05-8.843-12.428zm-1.52-14.958c1.199-2.279 4.037-2.019 6.196-2.06l4.941-.094-1.451 2.853-1.099 2.16c-.884 1.738-2.236 3.883-4.486 3.789-2.792-.119-5.479-4.029-4.101-6.648zm2.961-14.7c.294 2.655-1.452 5.91-4.245 7.915-3.972 2.849-9.362 3.103-16.477.771-5.384-1.764-9.861-2.382-13.542-2.38 2.111-.876 4.259-1.632 5.662-1.871 2.219-.379 4.554-.521 6.813-.658 5.622-.341 11.435-.694 16.471-4.611 1.013-.788 1.906-1.803 2.66-2.955 1.563.889 2.48 2.183 2.658 3.789zM96.772 41.788l-.972-6.472 5.821 3.636 2.959-6.278 3.75 6.227 5.571-3.577-.849 6.465h-16.28zm-1.698 26.446c1.81-1.029 3.819-1.572 5.947-2.147 2.172-.587 4.416-1.194 6.461-2.367 2.559-1.467 4.552-4.042 5.924-7.65 1.228-3.229 1.884-6.979 1.921-10.934 1.564.111 7.232.749 9.638 4.248 1.335 1.943 1.446 4.545.326 7.739-.034.097-3.518 9.7-16.198 13.714l.662 2.115c13.788-4.366 17.469-14.665 17.617-15.096.583-1.664.863-3.206.876-4.635 3.674 1.319 5 3.956 5.445 6.043.877 4.109-.997 9.465-4.177 11.939-4.498 3.5-9.722 3.817-15.253 4.152-2.317.141-4.709.309-7.049.684-4.302.689-11.746 4.706-11.746 4.706-3.466.843-5.537 2.272-6.473 2.995-1.519-.565-3.236-1.073-5.077-1.507.672-2.646 2.068-5.376 4.063-7.915a24.137 24.137 0 0 1 7.093-6.084zm-8.232 4.009c-.231.271-.371.42-.591.7a26.517 26.517 0 0 0-2.905 4.569 16.837 16.837 0 0 0-1.976-5.221l5.472-.048zm-26.866-6.695 4.207-2.268c2.589.642 17.585 5.142 17.271 18.389 0 0-4.48-.831-7.152-.87-.147-2.466-1.535-12.634-14.326-15.251zm35.669 69.784c-1.07 2.272-.836 4.923.696 7.885-.285 2.195-2.306 15.132-11.329 26.197H65.329c.952-1.983 2.957-5.264 5.789-5.264l6.893-.092c.74-.011 2.118-.029 3.678-9.867 1.26-7.961.169-14.304-3.337-19.393-.442-.641-.772-2.068-.253-3.986.741-2.736 3.729-8.136 15.418-13.58 5.039 2.955 8.127 6.539 9.172 10.654.189.745.296 1.472.349 2.176-1.633.431-5.771 1.83-7.393 5.27zm38.374 2.088c.085.005.159.064.165.13 1.056 11.905-8.665 28.869-10.625 32.149a.177.177 0 0 1-.155.084H105.22c1.845-5.242 4.859-5.532 4.939-5.541h8.834l.277-.697c1.915-4.812 1.031-14.16.992-14.556l-.107-1.093-1.089.097c-7.268.653-12.304-.465-14.571-3.228-1.908-2.328-1.359-5.161-1.212-5.766.52-.92 3.022-5.773 1.551-11.625-1.195-4.753-4.659-8.829-10.296-12.112-14.173-8.254-16.966-20.038-16.996-22.168 7.158 1.707 11.544 4.433 11.625 4.485l.527.334.557-.279c2.492-1.252 4.88-8.298 5.334-9.698l-2.097-.686c-1.033 3.185-2.672 6.86-3.802 8.061-3.155-1.802-16.919-8.737-35.215-4.431.446-1.572 1.148-3.8 1.415-4.419 6.572-5.493 24.098-3.917 32.916-.424l.66.254.51-.488c.071-.069 6.807-6.808 23.507-1.643.192.06-.058 1.953-.083 2.113-.209 1.38-.75 2.719-1.607 3.821-.858 1.105-1.984 1.616-3.08 2.411-2.046 1.484-3.194 3.879-3.698 6.31-.291 1.407-.382 2.853-.334 4.288.16 4.741 2.049 10.056 5.35 11.04l.301.089c4.872 1.447 9.474 2.813 8.655 11.861-.223 2.466.426 4.608 1.928 6.363 3.4 3.974 10.298 4.795 13.108 4.964zm7.403-21.961c-.393 2.064-1.614 3.781-3.368 4.905-1.611 1.034-3.502 1.57-5.377 1.861-1.406.218-2.83.292-4.251.281-2.078-.016-4.157-.102-6.235-.158-.055-.002-1-.008-1.002-.027-.14-1.424-.382-2.591-.818-3.62l7.898.105c2.715.103 7.859-.273 9.057-5.086.396-1.59.241-2.957-.46-4.06-1.289-2.031-3.975-2.551-5.936-2.931-.452-.088-.858-.164-1.176-.254-.645-.182-3.887-1.213-4.367-3.647-.296-1.499.386-4.077 5.03-8.031-1.021 1.303-2.552 3.706-2.206 6.05.146.991.706 2.388 2.547 3.415.915.511 2.074.892 3.301 1.293 4.281 1.403 8.706 2.854 7.363 9.904z" data-color="1"/></g></svg>